Patient4_TMGait_0pt4_01_right_02_GRF.mot
version=1
nRows=52
nColumns=19
inDegrees=no
endheader
time	F1x	F1y	F1z	M1x	M1y	M1z	F2x	F2y	F2z	M2x	M2y	M2z	EC1x	EC1y	EC1z	EC2x	EC2y	EC2z
2.07	0.87268	768.6537	59.3618	-269.0011	-61.0407	838.9788	-6.7626	12.7742	2.8854	3.0183	-2.9995	9.1062	-0.0592	0.0182	-0.0073	-0.0462	0.0165	0.9585
2.0839	2.3928	762.6418	60.3837	-266.6915	-61.3611	830.3718	-4.5992	9.3464	1.8418	2.3552	-1.8914	7.0062	-0.0592	0.0182	-0.0073	-0.0462	0.0165	0.9585
2.0977	4.0853	755.1533	61.0579	-263.842	-61.179	819.8097	-2.7958	6.5526	0.97755	1.8227	-0.96693	5.3775	-0.0592	0.0182	-0.0073	-0.0462	0.0165	0.9585
2.1116	5.8587	746.8447	61.3026	-260.7006	-60.4541	808.0432	-1.4639	4.5186	0.32499	1.4435	-0.26085	4.2678	-0.0592	0.0182	-0.0073	-0.0462	0.0165	0.9585
2.1254	7.6684	738.648	61.099	-257.6146	-59.1976	796.0889	-0.56664	3.1834	-0.12864	1.2027	0.23619	3.5888	-0.0592	0.0182	-0.0073	-0.0462	0.0165	0.9585
2.1393	9.5186	731.5809	60.5158	-254.9535	-57.489	785.0394	-0.050806	2.4073	-0.41662	1.0686	0.567	3.2336	-0.0592	0.0182	-0.0073	-0.0462	0.0165	0.9585
2.1531	11.4603	726.5352	59.6465	-253.0319	-55.4165	775.8453	0.17117	2.0105	-0.58209	0.99944	0.78165	3.0644	-0.0592	0.0182	-0.0073	-0.0462	0.0165	0.9585
2.167	13.5476	724.1559	58.6359	-252.0624	-53.1125	769.2142	0.19947	1.8099	-0.66478	0.95066	0.92083	2.936	-0.0592	0.0182	-0.0073	-0.0462	0.0165	0.9585
2.1809	15.8256	724.7953	57.621	-252.143	-50.7083	765.5567	0.092094	1.6344	-0.69885	0.87705	1.02	2.7171	-0.0592	0.0182	-0.0073	-0.0462	0.0165	0.9585
2.1947	18.2918	728.4736	56.736	-253.2489	-48.35	764.9615	-0.07667	1.3085	-0.70402	0.72924	1.0909	2.2395	-0.0592	0.0182	-0.0073	-0.0462	0.0165	0.9585
2.2086	20.8952	734.8601	56.0659	-255.2309	-46.151	767.1669	-0.25877	0.70554	-0.69533	0.46684	1.1413	1.3899	-0.0592	0.0182	-0.0073	-0.0462	0.0165	0.9585
2.2224	23.5788	743.2683	55.6676	-257.8198	-44.2049	771.5454	-0.39818	-0.28004	-0.6756	0.055156	1.1604	0.070519	-0.0592	0.0182	-0.0073	-0.0462	0.0165	0.9585
2.2363	26.2482	752.7167	55.5655	-260.6452	-42.5826	777.1824	-0.43934	-1.7091	-0.6391	-0.52428	1.1239	-1.7739	-0.0592	0.0182	-0.0073	-0.0462	0.0165	0.9585
2.2501	28.8055	762.0122	55.773	-263.2751	-41.3454	782.937	-0.33495	-3.53	-0.57251	-1.2505	0.99444	-4.0708	-0.0592	0.0182	-0.0073	-0.0462	0.0165	0.9585
2.264	31.1523	769.9025	56.2683	-265.2758	-40.5222	787.5989	0.0010568	-5.5455	-0.4641	-2.0462	0.72467	-6.5902	-0.0592	0.0182	-0.0073	-0.0462	0.0165	0.9585
2.2779	33.224	775.2489	56.995	-266.2648	-40.0937	790.0541	0.6315	-7.3256	-0.29565	-2.7474	0.26914	-8.8114	-0.0592	0.0182	-0.0073	-0.0462	0.0165	0.9585
2.2917	35.0637	777.1912	57.9079	-265.9642	-40.0109	789.4095	1.6154	-8.1626	-0.05393	-3.0815	-0.40989	-9.8704	-0.0592	0.0182	-0.0073	-0.0462	0.0165	0.9585
2.3056	36.7592	775.3397	59.0102	-264.2597	-40.2454	785.2239	2.9908	-6.997	0.26865	-2.6404	-1.3322	-8.4701	-0.0592	0.0182	-0.0073	-0.0462	0.0165	0.9585
2.3194	38.4235	769.8175	60.3231	-261.2219	-40.778	777.5541	4.7158	-2.3805	0.66368	-0.86721	-2.463	-2.8293	-0.0592	0.0182	-0.0073	-0.0462	0.0165	0.9585
2.3333	40.1427	761.1113	61.7979	-257.0581	-41.5315	766.8285	6.6448	7.4388	1.1055	2.9157	-3.7003	9.2064	-0.0592	0.0182	-0.0073	-0.0462	0.0165	0.9585
2.3471	42.0072	749.8114	63.2891	-252.0173	-42.3318	753.5834	8.4397	24.3685	1.5278	9.4449	-4.8201	29.9882	-0.0592	0.0182	-0.0073	-0.0462	0.0165	0.9585
2.361	44.1127	736.3084	64.607	-246.2823	-42.9539	738.1514	9.5197	50.0919	1.8155	19.3696	-5.4408	61.5918	-0.0592	0.0182	-0.0073	-0.0462	0.0165	0.9585
2.3749	46.4502	720.573	65.5356	-239.8888	-43.1771	720.4952	8.9921	85.4131	1.782	33.0026	-4.9808	105.0202	-0.0592	0.0182	-0.0073	-0.0462	0.0165	0.9585
2.3887	48.9027	702.0731	65.806	-232.7062	-42.7728	700.1257	5.6956	129.4125	1.1642	49.9926	-2.684	159.176	-0.0592	0.0182	-0.0073	-0.0462	0.0165	0.9585
2.4026	51.2155	679.9174	65.1343	-224.4864	-41.5512	676.262	-1.0834	178.7986	-0.3414	69.0647	2.0842	220.0349	-0.0592	0.0182	-0.0073	-0.0462	0.0165	0.9585
2.4164	53.0452	653.151	63.2992	-214.953	-39.4214	648.085	-10.4023	228.3096	-3.2013	88.1652	9.4698	281.0854	-0.0592	0.0182	-0.0073	-0.0462	0.0165	0.9585
2.4303	54.0793	621.1022	60.2603	-203.9049	-36.4556	615.0208	-20.2817	273.0937	-7.249	105.4223	18.4302	336.1602	-0.0592	0.0182	-0.0073	-0.0462	0.0165	0.9585
2.4441	54.0814	583.6328	56.1862	-191.2848	-32.8925	576.995	-29.1784	311.2184	-11.9062	120.0983	27.6456	382.6278	-0.0592	0.0182	-0.0073	-0.0462	0.0165	0.9585
2.458	52.9795	541.1095	51.382	-177.1789	-29.0364	534.3694	-36.2998	343.8301	-16.5703	132.6431	36.0849	421.7758	-0.0592	0.0182	-0.0073	-0.0462	0.0165	0.9585
2.4719	50.8414	494.2863	46.1562	-161.7889	-25.1421	487.8381	-41.3372	373.4243	-20.7505	144.0353	43.0583	456.6247	-0.0592	0.0182	-0.0073	-0.0462	0.0165	0.9585
2.4857	47.7897	444.1577	40.7336	-145.3906	-21.3619	438.3106	-44.2915	402.4776	-24.1951	155.2402	48.2925	490.1996	-0.0592	0.0182	-0.0073	-0.0462	0.0165	0.9585
2.4996	43.9285	391.842	35.2707	-128.3056	-17.7885	386.8025	-45.3945	432.822	-26.9628	166.9557	51.9632	524.7618	-0.0592	0.0182	-0.0073	-0.0462	0.0165	0.9585
2.5134	39.2749	338.6235	29.8883	-110.9172	-14.5124	334.5231	-45.0476	465.53	-29.2758	179.5782	54.5238	561.6542	-0.0592	0.0182	-0.0073	-0.0462	0.0165	0.9585
2.5273	33.8572	285.9753	24.7522	-93.6855	-11.6726	282.8694	-43.8033	500.9922	-31.5928	193.2264	56.725	601.4568	-0.0592	0.0182	-0.0073	-0.0462	0.0165	0.9585
2.5411	27.7925	235.543	20.0437	-77.1435	-9.4054	233.4153	-42.1516	538.9587	-34.2137	207.785	59.1196	643.9601	-0.0592	0.0182	-0.0073	-0.0462	0.0165	0.9585
2.555	21.3412	188.9762	15.95	-61.836	-7.8094	187.7503	-40.5333	578.6152	-37.3658	222.9307	62.1158	688.277	-0.0592	0.0182	-0.0073	-0.0462	0.0165	0.9585
2.5689	14.9175	147.6166	12.6009	-48.2163	-6.8794	147.1359	-39.2723	618.657	-40.9694	238.171	65.7339	732.9098	-0.0592	0.0182	-0.0073	-0.0462	0.0165	0.9585
2.5827	8.9019	112.2045	10.0109	-36.5447	-6.5065	112.2818	-38.4605	657.4868	-44.7956	252.9151	69.7242	775.9849	-0.0592	0.0182	-0.0073	-0.0462	0.0165	0.9585
2.5966	3.5971	82.8048	8.0589	-26.86	-6.4782	83.2595	-37.9944	693.5022	-48.4504	266.5731	73.5853	815.6125	-0.0592	0.0182	-0.0073	-0.0462	0.0165	0.9585
2.6104	-0.73263	58.9836	6.5544	-19.0329	-6.5288	59.6586	-37.6663	725.1912	-51.6246	278.5837	76.8775	850.0221	-0.0592	0.0182	-0.0073	-0.0462	0.0165	0.9585
2.6243	-3.864	40.0764	5.2875	-12.8494	-6.3855	40.8552	-37.3054	751.2179	-54.1589	288.44	79.3537	877.6903	-0.0592	0.0182	-0.0073	-0.0462	0.0165	0.9585
2.6381	-5.6049	25.3777	4.1105	-8.0744	-5.8488	26.1651	-36.803	770.5662	-56.0356	295.7482	80.958	897.4909	-0.0592	0.0182	-0.0073	-0.0462	0.0165	0.9585
2.652	-5.9449	14.3132	2.9592	-4.5079	-4.8585	15.037	-36.0927	782.7624	-57.3158	300.3193	81.746	908.9389	-0.0592	0.0182	-0.0073	-0.0462	0.0165	0.9585
2.6659	-5.2414	6.5078	1.8989	-2.0124	-3.6026	7.104	-35.1404	788.008	-58.0395	302.2266	81.7701	912.3265	-0.0592	0.0182	-0.0073	-0.0462	0.0165	0.9585
2.6797	-4.065	1.5462	1.0502	-0.44102	-2.3886	1.9838	-33.9234	787.159	-58.2681	301.7943	81.1045	908.6848	-0.0592	0.0182	-0.0073	-0.0462	0.0165	0.9585
2.6936	-2.805	-1.1921	0.43465	0.41134	-1.3689	-0.89673	-32.4151	781.6657	-58.054	299.5744	79.8162	899.6882	-0.0592	0.0182	-0.0073	-0.0462	0.0165	0.9585
2.7074	-1.6694	-2.3539	0.039156	0.7571	-0.60256	-2.1759	-30.6237	773.3821	-57.5122	296.2686	78.0499	887.449	-0.0592	0.0182	-0.0073	-0.0462	0.0165	0.9585
2.7213	-0.77062	-2.4839	-0.18611	0.77591	-0.081933	-2.3946	-28.5834	764.1847	-56.7537	292.5865	75.9582	874.0823	-0.0592	0.0182	-0.0073	-0.0462	0.0165	0.9585
2.7351	-0.12077	-2.0327	-0.27745	0.61311	0.21891	-2.0092	-26.3655	755.69	-55.8936	289.1387	73.701	861.4019	-0.0592	0.0182	-0.0073	-0.0462	0.0165	0.9585
2.749	0.30157	-1.3229	-0.28966	0.37042	0.35981	-1.3397	-24.0639	749.1386	-54.9696	286.3929	71.3617	850.794	-0.0592	0.0182	-0.0073	-0.0462	0.0165	0.9585
2.7629	0.53844	-0.56155	-0.25029	0.1127	0.38439	-0.58541	-21.7752	745.3054	-54.0169	284.6391	69.0157	843.1234	-0.0592	0.0182	-0.0073	-0.0462	0.0165	0.9585
2.7767	0.65207	0.12277	-0.19452	-0.11976	0.35064	0.1182	-19.5987	744.4832	-53.0561	283.9789	66.7239	838.7255	-0.0592	0.0182	-0.0073	-0.0462	0.0165	0.9585
